PathFileType	4	(X/Y/Z)	/Users/niels/Desktop/University/Third Semester/Perception and Action/Exam/Gymnastics Motion Tracking/Code for Gym Tracking/Analyzed Data/Webcam_Backflip/id5_1_trajectory_Sports2D/id5_1_trajectory_Sports2D_px_person00.trc
DataRate	CameraRate	NumFrames	NumMarkers	Units	OrigDataRate	OrigDataStartFrame	OrigNumFrames
29.76190476190476	29.76190476190476	8	22	m	29.76190476190476	0	126
Frame#	Time	Hip			RHip			RKnee			RAnkle			RBigToe			RSmallToe			RHeel			LHip			LKnee			LAnkle			LBigToe			LSmallToe			LHeel			Neck			Head			Nose			RShoulder			RElbow			RWrist			LShoulder			LElbow			LWrist		
		X1	Y1	Z1	X2	Y2	Z2	X3	Y3	Z3	X4	Y4	Z4	X5	Y5	Z5	X6	Y6	Z6	X7	Y7	Z7	X8	Y8	Z8	X9	Y9	Z9	X10	Y10	Z10	X11	Y11	Z11	X12	Y12	Z12	X13	Y13	Z13	X14	Y14	Z14	X15	Y15	Z15	X16	Y16	Z16	X17	Y17	Z17	X18	Y18	Z18	X19	Y19	Z19	X20	Y20	Z20	X21	Y21	Z21	X22	Y22	Z22
0	0.0	0.9326362244310137	-0.6135173016757343	0.0	0.9214254316359908	-0.6157622905412857	0.0	1.0132651155064558	-0.6919643603279297	0.0	1.025653995106421	-0.8197497122493189	0.0	1.0704624942441605	-0.8208544419374803	0.0	1.058136649376094	-0.8298213035782503	0.0	1.0178265419407395	-0.8387993633945591	0.0	0.9561786277175015	-0.6168848274948048	0.0	1.0323921950591186	-0.6874657645697392	0.0	0.9562038664210327	-0.7860766425659443	0.0	0.9943366069378773	-0.818572536017842	0.0	0.9887286211475645	-0.810726624491536	0.0	0.9360334279202221	-0.7950497079476371	0.0	1.0121910080049399	-0.47454955667538967	0.0	1.0424417574649052	-0.40843947523687174	0.0	1.0502882968168643	-0.44990161780467913	0.0	0.980813630192071	-0.4846330583510458	0.0	0.9707301635447348	-0.5440289247285138	0.0	1.0133140292043807	-0.5742806665600368	0.0	1.0290082076243272	-0.4980842054825184	0.0	1.0749466976374968	-0.5417840938878211	0.0	1.1466336017523582	-0.5586052834063401	0.0
1	0.033600000000000005	0.9277401633309323	-0.6139916846752222	0.0	0.9170129927208183	-0.6156290743691405	0.0	1.0053389734061489	-0.6934011301912224	0.0	1.0054556302664233	-0.8223934432570227	0.0	1.050600164352351	-0.82964100953621	0.0	1.0384446685437925	-0.8367000417477852	0.0	0.9945270393965141	-0.8410353217483827	0.0	0.9471424083893953	-0.6167218956109068	0.0	1.006390582172486	-0.7015095992587276	0.0	0.9297593870948289	-0.7952649070077856	0.0	0.9671301841725187	-0.8254609795402165	0.0	0.9629628000991746	-0.817934776432672	0.0	0.9109185165467623	-0.8041899657201533	0.0	0.9987418290558521	-0.4681260273440783	0.0	1.0264039713500686	-0.399514460867344	0.0	1.0351968890043641	-0.4422091570195635	0.0	0.9652335235036515	-0.4799878153467347	0.0	0.9480643505441357	-0.5388532783488827	0.0	0.9811893202541467	-0.5744890282077335	0.0	1.018059192211752	-0.4929299313962631	0.0	1.0634986277481429	-0.5388594790801803	0.0	1.1355343109315177	-0.5534753978344298	0.0
2	0.06720000000000001	0.9229281603263124	-0.6154322851119937	0.0	0.9123889149796494	-0.6166014459192027	0.0	0.9970759801009653	-0.6960391243717786	0.0	0.9852401899031198	-0.8254480702362967	0.0	1.0303414679566214	-0.8383372160099397	0.0	1.0183162531223373	-0.8437786209508363	0.0	0.9716678245620926	-0.8437750137200111	0.0	0.9388331548208653	-0.6176825221293263	0.0	0.9817747530577885	-0.714903023519375	0.0	0.9068787054525457	-0.8057316419712018	0.0	0.9449503385363152	-0.83319764429659	0.0	0.9416852220484841	-0.8257332082541069	0.0	0.8893280613480099	-0.8149787668741235	0.0	0.9854224779165135	-0.4632336214925232	0.0	1.0105944767363797	-0.3922669162003344	0.0	1.0202591203672826	-0.43604847311389944	0.0	0.9499367642124772	-0.4768594154950466	0.0	0.9262192440061933	-0.5357860060349087	0.0	0.9500100681157877	-0.5769188569014541	0.0	1.0071087196985877	-0.4891039603955906	0.0	1.0515195104084536	-0.5375502126879277	0.0	1.123758090043996	-0.5506876891472495	0.0
3	0.10080000000000001	0.918240724814149	-0.6183390949844204	0.0	0.9074241403821617	-0.619246346399427	0.0	0.9880940007535468	-0.7007368703866597	0.0	0.9648495316697555	-0.8291399391650935	0.0	1.0092931802808087	-0.8469357650668564	0.0	0.9972588594392581	-0.8511684624492661	0.0	0.9493169213192546	-0.8472296751377996	0.0	0.931801408705517	-0.6203558896112167	0.0	0.9598526045217762	-0.726840409900757	0.0	0.8897021060998157	-0.8177545077892568	0.0	0.9303885769333475	-0.8422210773124317	0.0	0.9271823740980385	-0.8344933357288178	0.0	0.8733734305482861	-0.8277822920893071	0.0	0.9724151918296585	-0.4608798753994654	0.0	0.9952772897538241	-0.3878878438538819	0.0	1.0056789162409203	-0.4324564227023231	0.0	0.9351765986881883	-0.4763033797393317	0.0	0.9059196739920984	-0.5360895766894547	0.0	0.9206343301575913	-0.5829730559369692	0.0	0.9962633165628907	-0.48755050958674656	0.0	1.0386320036528465	-0.5389248077921637	0.0	1.1107424172506115	-0.5519748367464533	0.0
4	0.13440000000000002	0.9136750454895359	-0.6226300178099168	0.0	0.902078936777787	-0.6234529253393825	0.0	0.9781128995698097	-0.7077272409467751	0.0	0.9441730568315045	-0.8334275992034089	0.0	0.987225013170018	-0.8554101156562459	0.0	0.9749102021291085	-0.8587526980591917	0.0	0.9273469661910829	-0.851245181608096	0.0	0.9262813872518778	-0.6246669666941933	0.0	0.9416676048296156	-0.7366912973411324	0.0	0.8784792580593946	-0.8303623816499378	0.0	0.9229723668761524	-0.8522669855380479	0.0	0.9189519977101456	-0.8441382962114788	0.0	0.863252188046919	-0.8414275371182637	0.0	0.9599756300767426	-0.461289546606671	0.0	0.9807642405531124	-0.3867881633880408	0.0	0.9917307980011537	-0.4316962972085378	0.0	0.9211895349449776	-0.4786189052941192	0.0	0.887750305707126	-0.5398732713822209	0.0	0.8937961553104509	-0.5927402375610035	0.0	0.9857736153049462	-0.48860681998891214	0.0	1.024814441940256	-0.54320841501013	0.0	1.096236166903897	-0.5580411703334722	0.0
5	0.16800000000000004	0.909187184657342	-0.6278179505309514	0.0	0.8963142217389475	-0.6286357543407076	0.0	0.9669431496690118	-0.7165425564767322	0.0	0.9232901740275531	-0.8379896353746156	0.0	0.9639687670759538	-0.8635006157151333	0.0	0.9510122108905877	-0.8660543588865112	0.0	0.9057451555635767	-0.8553655690879824	0.0	0.9221583473130744	-0.6300756903428787	0.0	0.9278088120022432	-0.7443440852466222	0.0	0.872162100561332	-0.8419568229320824	0.0	0.920224791843878	-0.8623854794979701	0.0	0.9148264239259153	-0.8540725141575193	0.0	0.857804738646279	-0.8540248848896661	0.0	0.9483511802851412	-0.4639346257817605	0.0	0.967338129811527	-0.3885356422472258	0.0	0.9786289514061076	-0.4332764132343666	0.0	0.9081545719113586	-0.48330172965106044	0.0	0.8720035465328957	-0.5463290553203433	0.0	0.8700364160917892	-0.6050494711054938	0.0	0.9759243666376762	-0.4919201211398749	0.0	1.0104209974465654	-0.5498130874590653	0.0	1.0802736512045361	-0.5685508136294013	0.0
6	0.20160000000000003	0.9047426854157442	-0.6332362636611354	0.0	0.8901044648348193	-0.6339990308274048	0.0	0.9544394952686077	-0.726221637991626	0.0	0.902504636125468	-0.8422902892226567	0.0	0.9393949358424768	-0.8706988506759351	0.0	0.9254390342590019	-0.8723400254945707	0.0	0.8847625663831434	-0.8589643605678209	0.0	0.9190974335132358	-0.6358218476800926	0.0	0.9183887977112595	-0.7501075254066126	0.0	0.8692970488105819	-0.8512440566041093	0.0	0.9192744312429737	-0.8713359136676145	0.0	0.9125693780059576	-0.8633558073232851	0.0	0.8554743864832862	-0.8640736344796492	0.0	0.9376937484121869	-0.4677880758066054	0.0	0.9551602344879321	-0.39204469342829634	0.0	0.9664631976617185	-0.43624058782549124	0.0	0.8961816378348441	-0.48925430686369914	0.0	0.8585745771288892	-0.5541695152669004	0.0	0.8496199126848037	-0.6180514108878947	0.0	0.9669025561438234	-0.4965488743999077	0.0	0.9960297846226718	-0.5576245982593991	0.0	1.0630637441024284	-0.5823423766415218	0.0
7	0.23520000000000002	0.9003148231954394	-0.6382243280386924	0.0	0.8834936395772951	-0.6387897281317696	0.0	0.9405088170307402	-0.7356498641490992	0.0	0.8822355121113916	-0.8457394816336233	0.0	0.9137093464453312	-0.87642315382404	0.0	0.8985199112948162	-0.8769059334308293	0.0	0.8647886732594764	-0.8614652404706996	0.0	0.9166598931388711	-0.6411371754729649	0.0	0.9130334132742045	-0.754378986797984	0.0	0.8685245760746754	-0.857804045180075	0.0	0.9181779386147033	-0.878111199947905	0.0	0.9108079131062372	-0.8709909399461382	0.0	0.8549632542644323	-0.8710500663908946	0.0	0.9280145503141083	-0.47166661531900933	0.0	0.9442249220023091	-0.395951788516962	0.0	0.9552281794071811	-0.4395106237734293	0.0	0.885268151040392	-0.495139539886787	0.0	0.847055174300351	-0.5619982872002914	0.0	0.8324699920175161	-0.6299292541117508	0.0	0.9587467623171496	-0.5012785197519242	0.0	0.9822088313490024	-0.5653637419119051	0.0	1.044893673778653	-0.5977374959834963	0.0
